<svg width="27" height="26" viewBox="0 0 27 26" fill="none" xmlns="http://www.w3.org/2000/svg">
<path d="M20.9583 20.8001C19.5246 20.8001 18.375 21.9496 18.375 23.3834C18.375 24.0685 18.6472 24.7256 19.1316 25.2101C19.6161 25.6946 20.2732 25.9667 20.9583 25.9667C21.6435 25.9667 22.3006 25.6946 22.785 25.2101C23.2695 24.7256 23.5417 24.0685 23.5417 23.3834C23.5417 22.6983 23.2695 22.0412 22.785 21.5567C22.3006 21.0722 21.6435 20.8001 20.9583 20.8001ZM0.291666 0.133392V2.71673H2.875L7.525 12.5205L5.76833 15.6851C5.57458 16.0467 5.45833 16.473 5.45833 16.9251C5.45833 17.6102 5.7305 18.2673 6.21497 18.7518C6.69944 19.2362 7.35652 19.5084 8.04167 19.5084H23.5417V16.9251H8.58417C8.49852 16.9251 8.41639 16.891 8.35583 16.8305C8.29527 16.7699 8.26125 16.6878 8.26125 16.6021C8.26125 16.5376 8.27417 16.4859 8.3 16.4471L9.4625 14.3417H19.0854C20.0542 14.3417 20.9067 13.7992 21.3458 13.0113L25.97 4.65423C26.0604 4.44756 26.125 4.22798 26.125 4.00839C26.125 3.66582 25.9889 3.33728 25.7467 3.09505C25.5044 2.85281 25.1759 2.71673 24.8333 2.71673H5.72958L4.51542 0.133392M8.04167 20.8001C6.60792 20.8001 5.45833 21.9496 5.45833 23.3834C5.45833 24.0685 5.7305 24.7256 6.21497 25.2101C6.69944 25.6946 7.35652 25.9667 8.04167 25.9667C8.72681 25.9667 9.38389 25.6946 9.86836 25.2101C10.3528 24.7256 10.625 24.0685 10.625 23.3834C10.625 22.6983 10.3528 22.0412 9.86836 21.5567C9.38389 21.0722 8.72681 20.8001 8.04167 20.8001Z" fill="white"/>
</svg>
