<svg width="23" height="22" viewBox="0 0 23 22" fill="none" xmlns="http://www.w3.org/2000/svg">
    <path d="M11.7492 2.64518C13.0348 1.49505 14.712 0.880762 16.4363 0.928463C18.1607 0.976164 19.8013 1.68223 21.0214 2.90168C22.2402 4.12027 22.9467 5.7589 22.996 7.48166C23.0454 9.20442 22.4339 10.8808 21.2869 12.1672L11.7469 21.7207L2.20917 12.1672C1.06084 10.8801 0.448777 9.20231 0.498652 7.47816C0.548527 5.75402 1.25655 4.11438 2.47737 2.89587C3.69818 1.67735 5.33916 0.972427 7.0634 0.925808C8.78763 0.87919 10.4643 1.49442 11.7492 2.64518ZM19.4284 4.49131C18.6154 3.6797 17.5228 3.20974 16.3745 3.17774C15.2262 3.14573 14.1091 3.55411 13.2522 4.31918L11.7503 5.66693L10.2473 4.32031C9.39418 3.55744 8.28244 3.14828 7.13832 3.17609C5.9942 3.20391 4.90366 3.66661 4.08862 4.47004C3.27358 5.27347 2.79529 6.35726 2.75106 7.50086C2.70683 8.64446 3.1 9.76196 3.85055 10.6259L11.748 18.5358L19.6455 10.6271C20.3929 9.76689 20.7862 8.65521 20.7459 7.5164C20.7056 6.3776 20.2348 5.29649 19.4284 4.49131Z" fill="black"/>
</svg>
