<svg width="22" height="23" viewBox="0 0 22 23" fill="none" xmlns="http://www.w3.org/2000/svg">
    <path d="M9.93731 2.20917L9.93738 2.20911C10.234 1.95694 10.6107 1.81848 11 1.81848C11.3893 1.81848 11.766 1.95694 12.0626 2.20911L12.0627 2.20917L19.9845 8.9423C20.1657 9.09631 20.3112 9.28785 20.411 9.50367L21.2161 9.13137L20.411 9.50367C20.5108 9.71947 20.5625 9.95439 20.5625 10.1921C20.5625 10.1922 20.5625 10.1922 20.5625 10.1922V20.7221C20.5625 20.9956 20.4539 21.258 20.2605 21.4513C20.0671 21.6447 19.8048 21.7534 19.5312 21.7534H16.2812C16.0077 21.7534 15.7454 21.6447 15.552 21.4513C15.3586 21.258 15.25 20.9957 15.25 20.7221V15.4409C15.25 14.7468 14.9751 14.0809 14.4853 13.5889C13.9956 13.097 13.331 12.819 12.6368 12.8159V12.8159H12.6323L9.36687 12.8159L9.36188 12.8159C8.66796 12.8194 8.00365 13.0975 7.5142 13.5894L8.22308 14.2947L7.5142 13.5894C7.02475 14.0813 6.74999 14.747 6.75 15.4409V20.7221C6.75 20.8576 6.72333 20.9917 6.6715 21.1168L7.55398 21.4823L6.6715 21.1168C6.61967 21.2419 6.54371 21.3556 6.44796 21.4513L7.15506 22.1585L6.44795 21.4514C6.35219 21.5471 6.23851 21.6231 6.11339 21.6749C5.98827 21.7267 5.85417 21.7534 5.71875 21.7534H2.46875C2.19525 21.7534 1.93294 21.6447 1.73955 21.4514C1.54615 21.258 1.4375 20.9957 1.4375 20.7221V10.1922C1.4375 10.1922 1.4375 10.1922 1.4375 10.1921C1.43752 9.95439 1.48922 9.71947 1.58902 9.50367C1.68881 9.28788 1.83431 9.09635 2.01544 8.94236C2.01546 8.94234 2.01548 8.94232 2.01551 8.9423L9.93731 2.20917Z" stroke="#263238" stroke-width="2"/>
</svg>
