<svg width="23" height="14" viewBox="0 0 23 14" fill="none" xmlns="http://www.w3.org/2000/svg">
    <path d="M0.25 8.03589H2.75V5.53589H0.25V8.03589ZM0.25 13.0359H2.75V10.5359H0.25V13.0359ZM0.25 3.03589H2.75V0.535889H0.25V3.03589ZM5.25 8.03589H22.75V5.53589H5.25V8.03589ZM5.25 13.0359H22.75V10.5359H5.25V13.0359ZM5.25 0.535889V3.03589H22.75V0.535889H5.25ZM0.25 8.03589H2.75V5.53589H0.25V8.03589ZM0.25 13.0359H2.75V10.5359H0.25V13.0359ZM0.25 3.03589H2.75V0.535889H0.25V3.03589ZM5.25 8.03589H22.75V5.53589H5.25V8.03589ZM5.25 13.0359H22.75V10.5359H5.25V13.0359ZM5.25 0.535889V3.03589H22.75V0.535889H5.25Z" fill="#263238"/>
</svg>
