<svg width="18" height="22" viewBox="0 0 18 22" fill="none" xmlns="http://www.w3.org/2000/svg">
    <path d="M17 20.5243V18.8576C17 16.0963 14.4413 13.8576 11.2853 13.8576H6.71467C3.55867 13.8576 1 16.0963 1 18.8576V20.5243M13 5.8576C13 6.91847 12.5786 7.93589 11.8284 8.68603C11.0783 9.43618 10.0609 9.8576 9 9.8576C7.93913 9.8576 6.92172 9.43618 6.17157 8.68603C5.42143 7.93589 5 6.91847 5 5.8576C5 4.79674 5.42143 3.77932 6.17157 3.02918C6.92172 2.27903 7.93913 1.8576 9 1.8576C10.0609 1.8576 11.0783 2.27903 11.8284 3.02918C12.5786 3.77932 13 4.79674 13 5.8576Z" stroke="#263238" stroke-width="2" stroke-linecap="round" stroke-linejoin="round"/>
</svg>
