<svg width="34" height="34" viewBox="0 0 34 34" fill="none" xmlns="http://www.w3.org/2000/svg">
    <path d="M12.0876 5.68138C14.1997 1.89397 15.2549 0.000259399 16.8335 0.000259399C18.4122 0.000259399 19.4674 1.89397 21.5795 5.68138L22.1263 6.66157C22.7264 7.73845 23.0264 8.27689 23.4932 8.63196C23.96 8.98703 24.5434 9.11872 25.7103 9.38211L26.7705 9.62215C30.8713 10.5507 32.9201 11.0141 33.4085 12.5827C33.8952 14.1497 32.4983 15.785 29.7027 19.054L28.9793 19.8992C28.1858 20.8277 27.7874 21.2928 27.609 21.8662C27.4306 22.4413 27.4906 23.0615 27.6107 24.3L27.7207 25.4286C28.1424 29.7911 28.3542 31.9716 27.0772 32.9401C25.8003 33.9086 23.8799 33.0251 20.0425 31.2581L19.0473 30.8013C17.9571 30.2979 17.412 30.0478 16.8335 30.0478C16.2551 30.0478 15.71 30.2979 14.6198 30.8013L13.6263 31.2581C9.78716 33.0251 7.86678 33.9086 6.59153 32.9417C5.31295 31.9716 5.52466 29.7911 5.9464 25.4286L6.05643 24.3017C6.17645 23.0615 6.23646 22.4413 6.05643 21.8679C5.87973 21.2928 5.48131 20.8277 4.68782 19.9008L3.96435 19.054C1.1688 15.7867 -0.228144 14.1514 0.258618 12.5827C0.745381 11.0141 2.79745 10.549 6.89826 9.62215L7.95847 9.38211C9.1237 9.11872 9.70548 8.98703 10.1739 8.63196C10.6423 8.27689 10.9407 7.73845 11.5408 6.66157L12.0876 5.68138Z" fill="#263238" fill-opacity="0.22"/>
</svg>
