<svg width="34" height="34" viewBox="0 0 34 34" fill="none" xmlns="http://www.w3.org/2000/svg">
    <path d="M11.9244 5.68127C14.0365 1.89386 15.0917 0.000152588 16.6703 0.000152588C18.249 0.000152588 19.3042 1.89386 21.4163 5.68127L21.963 6.66146C22.5632 7.73834 22.8632 8.27678 23.33 8.63185C23.7967 8.98692 24.3802 9.11861 25.5471 9.382L26.6073 9.62205C30.7081 10.5506 32.7568 11.014 33.2453 12.5826C33.732 14.1496 32.3351 15.7849 29.5395 19.0539L28.8161 19.8991C28.0226 20.8276 27.6242 21.2927 27.4458 21.8661C27.2674 22.4412 27.3274 23.0614 27.4475 24.2999L27.5575 25.4285C27.9792 29.791 28.1909 31.9714 26.914 32.94C25.6371 33.9085 23.7167 33.025 19.8793 31.258L18.8841 30.8012C17.7939 30.2978 17.2488 30.0477 16.6703 30.0477C16.0919 30.0477 15.5468 30.2978 14.4566 30.8012L13.463 31.258C9.62395 33.025 7.70358 33.9085 6.42832 32.9416C5.14974 31.9714 5.36145 29.791 5.7832 25.4285L5.89322 24.3016C6.01324 23.0614 6.07325 22.4412 5.89322 21.8678C5.71652 21.2927 5.31811 20.8276 4.52462 19.9007L3.80114 19.0539C1.00559 15.7866 -0.391352 14.1513 0.0954104 12.5826C0.582173 11.014 2.63424 10.5489 6.73505 9.62205L7.79526 9.382C8.96049 9.11861 9.54227 8.98692 10.0107 8.63185C10.4791 8.27678 10.7775 7.73834 11.3776 6.66146L11.9244 5.68127Z" fill="#EFA335"/>
</svg>
